<svg width="800" height="400" viewBox="0 0 800 400" fill="none" xmlns="http://www.w3.org/2000/svg">
<path d="M325.065 215.879C325.065 218.993 324.467 221.624 323.27 223.772C322.074 225.866 320.488 227.557 318.511 228.846C316.535 230.134 314.273 231.074 311.724 231.664C309.228 232.201 306.653 232.47 304 232.47H282V175.45H304C306.133 175.45 308.317 175.691 310.554 176.174C312.79 176.604 314.819 177.383 316.639 178.51C318.459 179.584 319.942 181.06 321.086 182.94C322.23 184.819 322.802 187.208 322.802 190.107C322.802 193.275 321.97 195.906 320.306 198C318.641 200.04 316.457 201.517 313.752 202.43V202.591C315.313 202.859 316.769 203.369 318.121 204.121C319.526 204.819 320.722 205.732 321.71 206.859C322.75 207.987 323.556 209.302 324.129 210.805C324.753 212.309 325.065 214 325.065 215.879ZM309.93 191.96C309.93 190.027 309.202 188.631 307.745 187.772C306.341 186.859 304.235 186.403 301.426 186.403H294.873V198.161H302.05C304.547 198.161 306.471 197.651 307.823 196.631C309.228 195.557 309.93 194 309.93 191.96ZM311.724 214.591C311.724 212.228 310.866 210.591 309.15 209.678C307.433 208.765 305.145 208.309 302.284 208.309H294.873V221.356H302.362C303.402 221.356 304.469 221.275 305.561 221.114C306.705 220.899 307.719 220.55 308.603 220.067C309.54 219.584 310.294 218.913 310.866 218.054C311.438 217.141 311.724 215.987 311.724 214.591Z" fill="#F8F8F8"/>
<path d="M333.884 232.47V175.45H371.019V187.128H346.756V197.839H369.693V208.872H346.756V220.711H372.424V232.47H333.884Z" fill="#F8F8F8"/>
<path d="M416.379 232.47L394.145 195.181H393.911L394.223 232.47H381.272V175.45H396.485L418.642 212.658H418.876L418.564 175.45H431.515V232.47H416.379Z" fill="#F8F8F8"/>
<path d="M473.1 212.98C473.1 215.235 472.84 217.597 472.32 220.067C471.852 222.537 470.942 224.819 469.589 226.913C468.289 228.953 466.443 230.644 464.05 231.987C461.71 233.329 458.667 234 454.922 234C450.241 234 446.341 232.765 443.22 230.295C440.099 227.772 438.019 224.55 436.979 220.631L448.759 216.523C449.123 218.027 449.773 219.235 450.709 220.148C451.698 221.06 452.894 221.517 454.298 221.517C456.483 221.517 457.913 220.738 458.589 219.181C459.317 217.624 459.681 215.584 459.681 213.06V175.45H473.1V212.98Z" fill="#F8F8F8"/>
<path d="M484.201 232.47V175.45H497.62V232.47H484.201Z" fill="#F8F8F8"/>
<path d="M510.677 175.45H526.28C529.089 175.45 531.637 175.772 533.926 176.416C536.214 177.007 538.165 177.946 539.777 179.235C541.441 180.47 542.715 182.054 543.6 183.987C544.484 185.866 544.926 188.094 544.926 190.671C544.926 193.248 544.458 195.503 543.522 197.436C542.637 199.315 541.363 200.899 539.699 202.188C538.087 203.423 536.11 204.362 533.77 205.007C531.481 205.651 528.933 205.973 526.124 205.973H516.294V232.47H510.677V175.45ZM516.294 201.06H525.812C530.233 201.06 533.588 200.174 535.876 198.403C538.165 196.631 539.309 194.054 539.309 190.671C539.309 187.128 538.113 184.55 535.72 182.94C533.38 181.275 530.077 180.443 525.812 180.443H516.294V201.06Z" fill="#F8F8F8"/>
<path d="M550.895 232.47H544.731L568.604 175.45H574.066L597.782 232.47H591.541L585.456 217.49H556.902L550.895 232.47ZM559.008 212.174H583.349L571.179 181.893L559.008 212.174Z" fill="#F8F8F8"/>
<path d="M620.222 232.47H614.605V207.906L593.93 175.45H600.952L617.569 203.074L634.343 175.45H640.896L620.222 207.906V232.47Z" fill="#F8F8F8"/>
<path d="M674.955 184.631C673.759 182.913 672.224 181.544 670.352 180.523C668.479 179.45 666.217 178.913 663.564 178.913C662.212 178.913 660.834 179.128 659.43 179.557C658.025 179.987 656.751 180.658 655.607 181.57C654.463 182.43 653.526 183.53 652.798 184.872C652.122 186.215 651.784 187.799 651.784 189.624C651.784 191.45 652.122 192.953 652.798 194.134C653.474 195.315 654.359 196.336 655.451 197.195C656.595 198 657.869 198.671 659.274 199.208C660.73 199.745 662.238 200.282 663.798 200.819C665.723 201.463 667.647 202.161 669.572 202.913C671.548 203.664 673.316 204.658 674.877 205.893C676.437 207.074 677.711 208.604 678.7 210.483C679.688 212.309 680.182 214.644 680.182 217.49C680.182 220.336 679.636 222.805 678.543 224.899C677.503 226.94 676.125 228.631 674.409 229.973C672.744 231.315 670.82 232.309 668.635 232.953C666.503 233.597 664.345 233.919 662.16 233.919C660.496 233.919 658.831 233.732 657.167 233.356C655.503 233.034 653.916 232.523 652.408 231.826C650.9 231.128 649.496 230.242 648.195 229.168C646.895 228.094 645.751 226.859 644.763 225.463L649.6 221.758C650.796 223.799 652.46 225.517 654.593 226.913C656.777 228.255 659.326 228.926 662.238 228.926C663.642 228.926 665.073 228.711 666.529 228.282C667.985 227.799 669.286 227.101 670.43 226.188C671.626 225.221 672.588 224.067 673.316 222.725C674.097 221.329 674.487 219.718 674.487 217.893C674.487 215.906 674.097 214.268 673.316 212.98C672.588 211.638 671.6 210.537 670.352 209.678C669.104 208.765 667.673 208.013 666.061 207.423C664.449 206.832 662.758 206.242 660.99 205.651C659.17 205.06 657.375 204.389 655.607 203.638C653.838 202.886 652.252 201.919 650.848 200.738C649.444 199.503 648.299 198 647.415 196.228C646.583 194.456 646.167 192.282 646.167 189.705C646.167 186.966 646.687 184.604 647.727 182.617C648.819 180.631 650.224 178.993 651.94 177.705C653.656 176.416 655.555 175.477 657.635 174.886C659.716 174.295 661.77 174 663.798 174C667.543 174 670.742 174.698 673.394 176.094C676.047 177.436 678.049 179.047 679.402 180.926L674.955 184.631Z" fill="#F8F8F8"/>
<g clip-path="url(#clip0_1397_13)">
<path d="M250.228 178.284C248.008 178.325 245.87 178.867 244.019 180.199C241.758 181.782 240.606 183.947 240.771 186.737C241.593 199.771 246.404 209.848 255.08 219.467C255.944 220.425 256.314 221.341 256.273 222.59C256.191 225.963 256.232 229.295 256.273 232.668C256.273 233.625 255.944 233.875 254.998 233.958C253.6 234.042 252.819 233.542 252.079 232.293C244.8 220.05 234.438 211.763 220.992 207.474C212.768 204.851 204.338 204.393 195.826 205.767C195.703 205.809 195.538 205.809 195.415 205.85C193.441 206.267 192.989 207.433 194.017 209.182C195.703 212.138 197.43 215.095 198.951 218.135C201.295 222.84 202.899 227.795 204.132 232.876C204.338 233.667 204.091 233.958 203.31 233.958C201.007 233.958 198.704 233.917 196.443 233.958C195.456 234 195.127 233.584 194.798 232.668C193.4 228.67 192.249 224.506 190.439 220.716C184.271 207.724 174.772 197.897 162.19 191.109C152.362 185.821 141.876 183.197 130.732 183.239C128.8 183.239 126.826 183.197 124.893 183.239C123.989 183.281 123.413 182.906 123.043 182.073C122.138 180.158 121.151 175.785 120.247 173.911C119.63 172.62 120.165 171.704 121.604 171.704C125.058 171.663 128.512 171.663 131.966 171.704C133.282 171.788 137.682 169.081 139.08 167.207C139.614 166.499 140.231 166.166 141.095 166.208C142.411 166.249 143.685 166.249 145.001 166.208C146.07 166.166 146.934 166.582 147.674 167.332C149.113 168.789 149.812 170.58 149.936 172.62C150.224 177.326 153.76 180.741 158.242 180.657C161.449 180.616 164.451 178.45 165.603 175.244C165.89 174.494 166.26 174.161 167.042 174.244C167.535 174.286 168.07 174.244 168.563 174.244C205.448 174.244 219.758 174.244 256.643 174.244C257.095 174.244 257.794 174.078 258 174.494C258.206 174.952 257.548 175.41 257.219 175.744C256.273 176.618 254.587 178.2 250.228 178.284Z" fill="#F8F8F8"/>
<path d="M178.185 207.599C177.651 207.683 177.157 207.807 176.705 207.849C172.84 208.182 168.933 208.474 165.068 208.765C163.341 208.89 162.313 209.265 162.272 210.223C162.231 211.014 162.765 211.347 164.287 211.972C165.52 212.513 166.754 213.013 168.029 213.512C169.303 213.97 168.81 216.469 168.481 217.26C168.152 218.051 167.987 219.009 166.754 218.468C163.341 217.052 159.846 215.636 156.433 214.179C155.98 213.97 154.788 212.929 154.5 212.471C153.965 211.68 153.349 211.305 153.349 208.849C153.965 203.56 162.436 200.687 169.015 200.229C169.55 200.187 175.924 203.56 178.103 206.891C178.144 207.058 178.144 207.224 178.185 207.599Z" fill="#F8F8F8"/>
<path d="M154.007 165.042C154.706 165.042 155.446 164.917 156.104 165.083C156.885 165.291 157.79 165.583 158.242 166.124C160.298 168.581 161.408 169.456 163.3 172.037C163.67 172.537 163.793 173.495 163.588 174.078C162.683 176.909 160.092 178.45 157.255 178.034C154.5 177.659 152.156 175.202 152.033 172.371C151.951 169.622 151.293 168.706 149.977 166.333C149.442 165.333 149.853 165.042 150.799 165.042C151.622 165.042 153.225 165.042 154.007 165.042Z" fill="#F8F8F8"/>
<path d="M221.485 210.972C222.554 210.431 226.173 212.138 229.504 214.179C230.408 214.72 231.395 215.803 231.724 216.885C233.122 221.091 234.232 225.422 235.631 229.669C236.494 232.334 235.959 233.667 232.999 233.5C230.984 233.417 229.791 234.167 228.928 231.793C226.707 225.505 224.734 221.299 222.266 215.136C221.609 213.512 220.539 211.43 221.485 210.972Z" fill="#F8F8F8"/>
</g>
<defs>
<clipPath id="clip0_1397_13">
<rect width="138" height="69" fill="white" transform="translate(120 165)"/>
</clipPath>
</defs>
</svg>
